<?xml version="1.0" standalone="no"?>
<!DOCTYPE svg PUBLIC "-//W3C//DTD SVG 20010904//EN"
 "http://www.w3.org/TR/2001/REC-SVG-20010904/DTD/svg10.dtd">
<svg version="1.0" xmlns="http://www.w3.org/2000/svg"
 width="165.000000pt" height="165.000000pt" viewBox="0 0 165.000000 165.000000"
 preserveAspectRatio="xMidYMid meet">
<metadata>
Created by potrace 1.13, written by Peter Selinger 2001-2015
</metadata>
<g transform="translate(0.000000,165.000000) scale(0.100000,-0.100000)"
fill="#000000" stroke="none">
<path d="M624 1560 c-135 -35 -281 -124 -374 -227 -313 -349 -242 -895 151
-1149 86 -56 143 -81 244 -105 96 -23 250 -25 347 -4 286 60 518 289 589 580
18 76 15 277 -5 354 -73 272 -285 483 -553 551 -103 27 -298 27 -399 0z m303
-602 c30 -25 14 -36 -44 -31 -53 5 -60 3 -82 -21 -18 -19 -26 -41 -29 -80 -4
-51 -2 -57 27 -86 22 -23 38 -30 58 -28 26 3 28 7 31 51 3 43 5 48 25 45 19
-3 22 -10 25 -62 4 -71 -2 -76 -81 -76 -51 0 -61 4 -94 34 -35 32 -37 38 -41
102 -3 60 0 74 20 104 32 48 82 73 133 65 21 -3 45 -11 52 -17z"/>
</g>
</svg>
